<svg width="40" height="40" viewBox="0 0 40 40" fill="none" xmlns="http://www.w3.org/2000/svg">
<circle cx="20" cy="20" r="19.5" stroke="#5D2F91"/>
<path d="M17.2741 14.3999C18.6526 14.3999 19.8352 14.8615 20.8217 15.7848L19.3799 17.1508C18.8107 16.6069 18.1088 16.335 17.2741 16.335C16.6796 16.335 16.1294 16.4868 15.6235 16.7903C15.1303 17.0812 14.7319 17.4859 14.4283 18.0045C14.1374 18.5104 13.992 19.0669 13.992 19.674C13.992 20.281 14.1374 20.8439 14.4283 21.3624C14.7319 21.8683 15.1303 22.273 15.6235 22.5766C16.1294 22.8675 16.6796 23.0129 17.2741 23.0129C17.9191 23.0129 18.4756 22.8738 18.9435 22.5956C19.3356 22.3679 19.6518 22.058 19.8921 21.666C20.0945 21.3624 20.221 21.0526 20.2715 20.7364H17.2741V18.9151H22.2635C22.3141 19.0922 22.3394 19.3894 22.3394 19.8068C22.3394 20.8059 22.1307 21.6976 21.7134 22.4817C21.296 23.2659 20.7016 23.8793 19.9301 24.322C19.1586 24.752 18.2732 24.967 17.2741 24.967C16.3128 24.967 15.4212 24.7267 14.5991 24.2461C13.8149 23.7781 13.1826 23.1394 12.7019 22.33C12.234 21.5205 12 20.6352 12 19.674C12 18.7127 12.234 17.8337 12.7019 17.0369C13.1826 16.2275 13.8213 15.5888 14.6181 15.1208C15.4275 14.6402 16.3128 14.3999 17.2741 14.3999ZM25.5646 17.4164H27.0823V18.9151H28.6V20.4328H27.0823V21.9316H25.5646V20.4328H24.0658V18.9151H25.5646V17.4164Z" fill="#5D2F91"/>
</svg>
