<svg width="40" height="40" viewBox="0 0 40 40" fill="none" xmlns="http://www.w3.org/2000/svg">
<circle cx="20" cy="20" r="19.5" stroke="#5D2F91"/>
<path d="M26.416 21.408C26.8107 22.0693 27.0027 22.7573 26.992 23.472C26.992 24.176 26.816 24.832 26.464 25.44C26.112 26.0373 25.6373 26.512 25.04 26.864C24.4427 27.216 23.7867 27.392 23.072 27.392C22.3253 27.392 21.6373 27.2 21.008 26.816C20.656 26.8693 20.32 26.896 20 26.896C18.8267 26.896 17.7333 26.6027 16.72 26.016C15.7387 25.44 14.96 24.6613 14.384 23.68C13.7973 22.6667 13.504 21.5733 13.504 20.4C13.504 20.0907 13.5307 19.7493 13.584 19.376C13.2 18.7573 13.008 18.0747 13.008 17.328C13.008 16.6133 13.184 15.9573 13.536 15.36C13.888 14.752 14.3627 14.272 14.96 13.92C15.5573 13.568 16.2133 13.392 16.928 13.392C17.6533 13.392 18.3413 13.5893 18.992 13.984C19.344 13.9307 19.68 13.904 20 13.904C21.1733 13.904 22.2667 14.1973 23.28 14.784C24.2613 15.36 25.04 16.1387 25.616 17.12C26.2027 18.1333 26.496 19.2267 26.496 20.4C26.496 20.72 26.4693 21.056 26.416 21.408ZM23.088 23.36C23.3653 22.9547 23.504 22.5067 23.504 22.016C23.504 21.6 23.424 21.2533 23.264 20.976C23.1147 20.6987 22.8907 20.4587 22.592 20.256C22.3253 20.0853 21.984 19.9307 21.568 19.792C21.248 19.6747 20.8 19.552 20.224 19.424C19.9253 19.36 19.648 19.2907 19.392 19.216C19.2427 19.1733 19.072 19.1093 18.88 19.024C18.72 18.9387 18.592 18.8427 18.496 18.736C18.4107 18.5973 18.368 18.4587 18.368 18.32C18.368 18.0853 18.5013 17.8773 18.768 17.696C19.0453 17.504 19.408 17.408 19.856 17.408C20.3573 17.408 20.7093 17.4933 20.912 17.664C21.136 17.824 21.3227 18.0587 21.472 18.368C21.6107 18.592 21.728 18.7467 21.824 18.832C21.9413 18.928 22.1013 18.976 22.304 18.976C22.5493 18.976 22.7467 18.896 22.896 18.736C23.0453 18.576 23.12 18.3893 23.12 18.176C23.12 17.9627 23.056 17.744 22.928 17.52C22.8107 17.296 22.6187 17.0827 22.352 16.88C22.096 16.6667 21.7707 16.496 21.376 16.368C20.992 16.24 20.528 16.176 19.984 16.176C19.312 16.176 18.72 16.272 18.208 16.464C17.7067 16.656 17.3227 16.928 17.056 17.28C16.8 17.6213 16.672 18.0267 16.672 18.496C16.672 18.9547 16.7947 19.344 17.04 19.664C17.2853 19.984 17.6267 20.24 18.064 20.432C18.5013 20.6133 19.0293 20.768 19.648 20.896L19.92 20.96C20.336 21.056 20.6187 21.1307 20.768 21.184C21.0347 21.2587 21.2533 21.3813 21.424 21.552C21.6053 21.7227 21.696 21.936 21.696 22.192C21.696 22.512 21.536 22.784 21.216 23.008C20.896 23.232 20.4747 23.344 19.952 23.344C19.568 23.344 19.264 23.2907 19.04 23.184C18.8267 23.0773 18.656 22.9387 18.528 22.768C18.4 22.5973 18.2773 22.384 18.16 22.128C18.0747 21.9253 17.9627 21.7547 17.824 21.616C17.6853 21.5093 17.52 21.456 17.328 21.456C17.0827 21.456 16.88 21.5307 16.72 21.68C16.5707 21.8293 16.496 22.0053 16.496 22.208C16.496 22.5493 16.624 22.9067 16.88 23.28C17.136 23.6427 17.4613 23.936 17.856 24.16C18.4107 24.4587 19.1253 24.608 20 24.608C20.7253 24.608 21.3493 24.5013 21.872 24.288C22.3947 24.0747 22.8 23.7653 23.088 23.36Z" fill="#5D2F91"/>
</svg>
