<svg width="40" height="40" viewBox="0 0 40 40" fill="none" xmlns="http://www.w3.org/2000/svg">
<circle cx="20" cy="20" r="19.5" stroke="#5D2F91"/>
<path d="M28.616 15.1934C28.1481 15.8889 27.5791 16.4769 26.9089 16.9574V17.4127C26.9089 18.5634 26.7002 19.7015 26.2829 20.8269C25.8403 21.9903 25.2207 23.0272 24.4241 23.9377C23.5642 24.9114 22.5526 25.6701 21.3892 26.2138C20.1246 26.7955 18.74 27.0864 17.2352 27.0864C15.3257 27.0864 13.5807 26.5806 12 25.5689H12.0569C12.3983 25.5942 12.6512 25.6069 12.8156 25.6069C13.5996 25.6069 14.352 25.4804 15.0728 25.2275C15.8063 24.9746 16.4638 24.6142 17.0455 24.1463C16.3121 24.1337 15.6545 23.9124 15.0728 23.4824C14.4911 23.0399 14.0928 22.4771 13.8778 21.7943C14.0675 21.8322 14.2762 21.8512 14.5038 21.8512C14.8326 21.8512 15.136 21.8133 15.4142 21.7374C14.6176 21.573 13.96 21.181 13.4416 20.5614C12.9358 19.9417 12.6828 19.221 12.6828 18.399V18.3421C13.1507 18.6203 13.6629 18.7657 14.2193 18.7784C13.7514 18.4622 13.3783 18.0576 13.1001 17.5644C12.8346 17.0586 12.7018 16.5149 12.7018 15.9332C12.7018 15.3388 12.8536 14.7698 13.1571 14.226C14.0169 15.2756 15.0475 16.1102 16.2488 16.7298C17.4754 17.3621 18.7842 17.7162 20.1752 17.792C20.1246 17.5771 20.0994 17.3178 20.0994 17.0143C20.0994 16.3947 20.2511 15.8257 20.5546 15.3072C20.8581 14.7888 21.269 14.3778 21.7875 14.0743C22.306 13.7582 22.875 13.6001 23.4946 13.6001C23.9752 13.6001 24.4304 13.6949 24.8603 13.8846C25.3029 14.0743 25.676 14.3399 25.9794 14.6813C26.7761 14.5295 27.4969 14.2513 28.1418 13.8467C28.0153 14.2513 27.8193 14.618 27.5538 14.9468C27.3009 15.2756 26.9974 15.5412 26.6433 15.7435C27.3641 15.6423 28.0217 15.459 28.616 15.1934Z" fill="#5D2F91"/>
</svg>
